<mxfile host="app.diagrams.net" modified="2024-03-17T20:41:38.669Z" agent="Mozilla/5.0 (Windows NT 10.0; Win64; x64) AppleWebKit/537.36 (KHTML, like Gecko) Chrome/122.0.0.0 Safari/537.36" etag="YKzOcWAb4g1e58CQfRlt" version="24.0.7" type="github">
  <diagram name="Page-1" id="5d7acffa-a066-3a61-03fe-96351882024d">
    <mxGraphModel dx="1195" dy="622" grid="1" gridSize="10" guides="1" tooltips="1" connect="1" arrows="1" fold="1" page="1" pageScale="1" pageWidth="1100" pageHeight="850" background="#ffffff" math="0" shadow="0">
      <root>
        <mxCell id="0" />
        <mxCell id="1" parent="0" />
        <mxCell id="LuSrNHb6YKKbZz44swXS-5" value="eks repo" style="rounded=1;whiteSpace=wrap;html=1;absoluteArcSize=1;arcSize=14;strokeWidth=2;" vertex="1" parent="1">
          <mxGeometry x="160" y="80" width="100" height="100" as="geometry" />
        </mxCell>
        <mxCell id="LuSrNHb6YKKbZz44swXS-6" value="Github Actions" style="rounded=1;whiteSpace=wrap;html=1;absoluteArcSize=1;arcSize=14;strokeWidth=2;" vertex="1" parent="1">
          <mxGeometry x="480" y="80" width="100" height="100" as="geometry" />
        </mxCell>
        <mxCell id="LuSrNHb6YKKbZz44swXS-7" value="Commit" style="html=1;verticalAlign=bottom;endArrow=block;curved=0;rounded=0;exitX=1;exitY=0.5;exitDx=0;exitDy=0;" edge="1" parent="1" source="LuSrNHb6YKKbZz44swXS-5" target="LuSrNHb6YKKbZz44swXS-6">
          <mxGeometry width="80" relative="1" as="geometry">
            <mxPoint x="290" y="140" as="sourcePoint" />
            <mxPoint x="510" y="180" as="targetPoint" />
          </mxGeometry>
        </mxCell>
        <mxCell id="LuSrNHb6YKKbZz44swXS-10" value="CD" style="html=1;verticalAlign=bottom;endArrow=block;curved=0;rounded=0;exitX=1;exitY=0.5;exitDx=0;exitDy=0;" edge="1" parent="1">
          <mxGeometry width="80" relative="1" as="geometry">
            <mxPoint x="580" y="129.58" as="sourcePoint" />
            <mxPoint x="810" y="129.93910780669148" as="targetPoint" />
          </mxGeometry>
        </mxCell>
        <mxCell id="LuSrNHb6YKKbZz44swXS-11" value="services repo&lt;div&gt;ArgoCD&lt;/div&gt;" style="rounded=1;whiteSpace=wrap;html=1;absoluteArcSize=1;arcSize=14;strokeWidth=2;" vertex="1" parent="1">
          <mxGeometry x="160" y="280" width="100" height="100" as="geometry" />
        </mxCell>
        <mxCell id="LuSrNHb6YKKbZz44swXS-12" value="Github Actions" style="rounded=1;whiteSpace=wrap;html=1;absoluteArcSize=1;arcSize=14;strokeWidth=2;" vertex="1" parent="1">
          <mxGeometry x="480" y="280" width="100" height="100" as="geometry" />
        </mxCell>
        <mxCell id="LuSrNHb6YKKbZz44swXS-13" value="Commit" style="html=1;verticalAlign=bottom;endArrow=block;curved=0;rounded=0;exitX=1;exitY=0.5;exitDx=0;exitDy=0;" edge="1" parent="1" source="LuSrNHb6YKKbZz44swXS-11" target="LuSrNHb6YKKbZz44swXS-12">
          <mxGeometry width="80" relative="1" as="geometry">
            <mxPoint x="290" y="340" as="sourcePoint" />
            <mxPoint x="510" y="380" as="targetPoint" />
          </mxGeometry>
        </mxCell>
        <mxCell id="LuSrNHb6YKKbZz44swXS-15" value="CD" style="html=1;verticalAlign=bottom;endArrow=block;curved=0;rounded=0;exitX=1;exitY=0.5;exitDx=0;exitDy=0;" edge="1" parent="1">
          <mxGeometry width="80" relative="1" as="geometry">
            <mxPoint x="580" y="329.58000000000004" as="sourcePoint" />
            <mxPoint x="810" y="329.93910780669137" as="targetPoint" />
          </mxGeometry>
        </mxCell>
        <mxCell id="LuSrNHb6YKKbZz44swXS-16" value="eks cluster" style="sketch=0;points=[[0,0,0],[0.25,0,0],[0.5,0,0],[0.75,0,0],[1,0,0],[0,1,0],[0.25,1,0],[0.5,1,0],[0.75,1,0],[1,1,0],[0,0.25,0],[0,0.5,0],[0,0.75,0],[1,0.25,0],[1,0.5,0],[1,0.75,0]];outlineConnect=0;fontColor=#232F3E;fillColor=#ED7100;strokeColor=#ffffff;dashed=0;verticalLabelPosition=bottom;verticalAlign=top;align=center;html=1;fontSize=12;fontStyle=0;aspect=fixed;shape=mxgraph.aws4.resourceIcon;resIcon=mxgraph.aws4.eks;" vertex="1" parent="1">
          <mxGeometry x="810" y="91" width="78" height="78" as="geometry" />
        </mxCell>
      </root>
    </mxGraphModel>
  </diagram>
</mxfile>
